<svg width="159" height="19" viewBox="0 0 159 19" fill="none" xmlns="http://www.w3.org/2000/svg">
<path d="M17.5316 12.5534C17.5316 14.1696 17.6779 15.2126 18.0541 16.3897H15.0676C15.4599 15.2309 15.59 14.2022 15.59 12.5534V6.57837L10.971 12.2911L6.38454 6.62716V12.5514C6.38454 14.1676 6.53092 15.2106 6.90702 16.3877H3.92052C4.3129 15.2289 4.44301 14.2001 4.44301 12.5514V4.4559C4.03437 3.93341 3.59321 3.47598 3.13782 3.06735V3.01855H6.09178C6.37031 3.68742 6.67933 4.19363 7.39699 5.0597L10.9873 9.49981L14.9862 4.53721C15.4274 3.99846 15.7527 3.49225 15.9824 3.01855H18.544V3.06735C18.1354 3.57357 17.8589 4.04726 17.7288 4.47013C17.5987 4.89503 17.5336 5.4663 17.5336 6.20022V12.5493L17.5316 12.5534Z" fill="#193963"/>
<path d="M33.6877 16.3879H30.439C30.4715 16.2741 30.4878 16.1277 30.4878 15.9467C30.4878 15.3592 30.3251 14.7066 29.8189 13.6128L29.1826 12.143H24.1712L23.4535 13.6616C22.9961 14.609 22.7684 15.3755 22.7684 15.9467C22.7684 16.0931 22.7847 16.2395 22.8009 16.3879H19.601V16.3391C20.2048 15.6052 20.8411 14.5765 21.51 13.255L26.8304 2.69556H26.8791L31.8417 13.3038C32.4293 14.609 32.903 15.3612 33.6857 16.3391V16.3879H33.6877ZM24.9071 10.6101H28.4974L26.7673 6.65993L24.9071 10.6101Z" fill="#193963"/>
<path d="M46.4189 16.3882H42.9425C42.8124 15.7518 42.2248 14.7231 41.4401 13.7432L37.7034 9.14045V12.5519C37.7034 14.1681 37.8498 15.211 38.2259 16.3882H35.2394C35.6155 15.2131 35.7619 14.1681 35.7619 12.5519V6.85534C35.7619 5.2391 35.6155 4.19413 35.2394 3.01904H38.2259C37.8498 4.19413 37.7034 5.2391 37.7034 6.85534V8.94528L41.066 4.91382C41.6536 4.21242 41.8487 3.73873 41.9138 3.02107H45.6037V3.08613C44.4286 3.98472 43.3674 4.97887 42.42 6.10516L40.021 8.97781L44.0362 13.9241C44.9348 14.9854 45.7176 15.7844 46.4189 16.3231V16.3882Z" fill="#193963"/>
<path d="M60.5526 16.3882H57.3038C57.3364 16.2743 57.3526 16.1279 57.3526 15.947C57.3526 15.3595 57.19 14.7069 56.6838 13.6131L56.0474 12.1432H51.036L50.3184 13.6619C49.861 14.6093 49.6333 15.3757 49.6333 15.947C49.6333 16.0934 49.6495 16.2398 49.6658 16.3882H46.4658V16.3394C47.0696 15.6055 47.706 14.5767 48.3748 13.2553L53.6952 2.6958H53.744L58.7066 13.3041C59.2942 14.6093 59.7678 15.3615 60.5505 16.3394V16.3882H60.5526ZM51.772 10.6103H55.3623L53.6322 6.66018L51.772 10.6103Z" fill="#193963"/>
<path d="M65.299 16.3877H62.099C62.4751 15.2126 62.6215 14.1676 62.6215 12.5514V6.85485C62.6215 5.23861 62.4751 4.19364 62.099 3.01855H65.2664C67.7142 3.01855 69.3792 4.4376 69.3792 6.38116C69.3792 7.49119 68.7104 8.50363 67.5515 9.22129C69.2491 10.2175 70.0318 11.2462 70.0318 12.6977C70.0318 14.869 67.8931 16.3856 65.299 16.3856V16.3877ZM64.565 9.18875C66.3114 8.86144 67.3726 7.71889 67.3726 6.47875C67.3726 5.14103 66.1975 4.14484 64.565 4.14484V9.18875ZM64.565 9.44899V15.2593C66.7363 15.2593 67.9764 14.1656 67.9764 12.6977C67.9764 11.2299 66.5737 9.7763 64.565 9.44899Z" fill="#193963"/>
<path d="M73.2329 6.85779C73.2329 5.24154 73.0866 4.19657 72.7104 3.02148H75.6969C75.3208 4.19657 75.1745 5.24154 75.1745 6.85779V12.5543C75.1745 14.1705 75.3208 15.2135 75.6969 16.3906H72.7104C73.0866 15.2155 73.2329 14.1705 73.2329 12.5543V6.85779Z" fill="#193963"/>
<path d="M100.684 15.2618L98.643 16.5183C97.4192 16.2743 95.8355 15.2131 94.3168 13.6944C92.9283 15.5058 90.9867 16.5183 88.6528 16.5183C85.2739 16.5183 83.3975 14.8857 83.3975 12.438C83.3975 10.8543 84.1639 9.74425 86.0079 8.88022C85.0279 8.30894 84.538 7.41035 84.538 6.17021C84.538 4.40758 86.0567 2.88892 88.0307 2.88892C89.8909 2.88892 91.3283 4.0152 91.3283 5.973C91.3283 7.01797 90.8383 7.88201 89.9743 8.48582C91.4441 9.0083 92.7656 9.75848 93.957 10.7547C94.5282 9.36611 94.8047 7.80069 94.8047 6.0218C94.8047 5.53184 94.7884 5.09068 94.7559 4.70034C94.331 4.70034 93.8899 4.73286 93.4182 4.79792C92.9608 4.84671 92.6192 4.91176 92.4058 4.99308V3.01903H99.44L99.4237 5.1415C98.6898 4.86298 97.5473 4.70034 96.5511 4.70034H96.486C96.5348 5.22283 96.5511 5.66399 96.5511 6.00553C96.5511 8.30691 96.1424 10.3135 95.3109 12.0619C97.3195 13.8733 99.131 14.8207 100.682 15.1948V15.2598L100.684 15.2618ZM87.6587 9.59787C86.1075 10.2993 85.4874 11.0677 85.4874 12.2266C85.4874 13.6131 86.7113 14.6418 88.7199 14.6418C90.4825 14.6418 91.9524 13.8753 92.9974 12.4543C91.6922 11.1653 89.9295 10.2993 87.6607 9.59787H87.6587ZM88.0673 8.01415C89.0472 7.60552 89.5697 6.93665 89.5697 6.10515C89.5697 5.27365 88.9334 4.63528 87.9697 4.63528C87.0061 4.63528 86.3209 5.32041 86.3209 6.17021C86.3209 7.02001 86.7784 7.57299 88.0673 8.01415Z" fill="#193963"/>
<path d="M107.57 13.3203H107.635C108.206 13.9729 108.696 14.4303 109.121 14.6743C109.546 14.9183 110.036 15.0504 110.591 15.0504C111.766 15.0504 112.681 14.2006 112.681 13.0763C112.681 12.1127 112.159 11.5577 110.134 10.4151C109.17 9.87638 108.485 9.32136 108.076 8.75009C107.684 8.17881 107.489 7.47741 107.489 6.66014C107.456 4.75114 109.203 2.80758 111.553 2.85637C112.468 2.85637 113.315 3.05154 114.1 3.44391V5.4688L114.051 5.48506C113.153 4.70235 112.451 4.44009 111.553 4.44009C110.264 4.44009 109.463 5.33868 109.463 6.31656C109.463 7.29444 110.067 8.04666 111.878 9.04284C114.017 10.2505 114.751 11.0006 114.799 12.749C114.799 15.1317 112.84 16.5528 110.392 16.5528C109.347 16.5528 108.402 16.3739 107.568 16.0303V13.3203H107.57Z" fill="#193963"/>
<path d="M124.249 16.5526C120.169 16.6339 117.296 13.2225 117.361 9.71351C117.296 6.02359 120.496 2.77686 124.314 2.85819C128.102 2.80939 131.365 5.64952 131.3 9.61593C131.381 13.5823 128.151 16.6176 124.249 16.5526ZM124.642 15.1315C127.303 15.1315 129.163 12.8952 129.163 10.1039C129.212 7.01976 126.78 4.19591 123.924 4.27723C121.525 4.27723 119.516 6.28585 119.516 9.27235C119.468 12.3422 121.655 15.1966 124.642 15.1315Z" fill="#193963"/>
<path d="M146.169 12.0318C146.169 13.9733 146.266 15.1972 146.528 16.3906H144.064C143.902 15.9169 143.542 15.3131 142.971 14.6117L136.865 6.87405V12.0318C136.865 13.0117 136.898 13.8107 136.979 14.447C137.061 15.0834 137.191 15.7197 137.388 16.3886H134.401C134.597 15.7197 134.729 15.0671 134.81 14.4308C134.891 13.7944 134.924 12.9934 134.924 12.0318V4.8329C134.353 4.11525 133.928 3.67408 133.259 3.08654V3.02148H136.556C136.703 3.36506 136.868 3.69035 137.079 4.01766C137.29 4.34498 137.618 4.78412 138.059 5.32287L144.229 13.1418V7.38028C144.229 6.41663 144.197 5.61764 144.115 4.98131C144.034 4.34497 143.904 3.69238 143.707 3.02352H146.693C146.498 3.69238 146.366 4.32872 146.284 4.96505C146.203 5.60139 146.171 6.4024 146.171 7.38028V12.0318H146.169Z" fill="#193963"/>
<path d="M149.578 13.3203H149.643C150.215 13.9729 150.705 14.4303 151.129 14.6743C151.554 14.9183 152.044 15.0504 152.599 15.0504C153.774 15.0504 154.689 14.2006 154.689 13.0763C154.689 12.1127 154.167 11.5577 152.142 10.4151C151.178 9.87638 150.493 9.32136 150.084 8.75009C149.692 8.17881 149.497 7.47741 149.497 6.66014C149.464 4.75114 151.211 2.80758 153.561 2.85637C154.476 2.85637 155.324 3.05154 156.108 3.44391V5.4688L156.059 5.48506C155.161 4.70235 154.459 4.44009 153.561 4.44009C152.272 4.44009 151.471 5.33868 151.471 6.31656C151.471 7.29444 152.075 8.04666 153.886 9.04284C156.025 10.2505 156.759 11.0006 156.808 12.749C156.808 15.1317 154.848 16.5528 152.4 16.5528C151.355 16.5528 150.41 16.3739 149.576 16.0303V13.3203H149.578Z" fill="#193963"/>
</svg>
