<svg width="735" height="142" viewBox="0 0 735 142" fill="none" xmlns="http://www.w3.org/2000/svg">
<path d="M33.4653 53.765C36.7342 54.9854 40.1339 55.5956 43.6643 55.5956C46.9767 55.5956 50.2674 55.0508 53.5363 53.9611L51.3135 58.603C49.788 59.6054 47.4344 60.1067 44.2527 60.1067C41.5504 60.1067 39.0224 59.7144 36.6688 58.9299C34.3588 58.1453 32.4193 57.1211 30.8502 55.8571C29.2811 54.6367 28.0608 53.5689 27.1891 52.6536C26.3609 51.7383 25.6418 50.823 25.0316 49.9077C18.7989 49.6462 13.4161 47.1183 8.88328 42.3239C4.39401 37.4859 2.14937 31.7545 2.14937 25.1295C2.14937 18.1995 4.54655 12.3155 9.34092 7.47754C14.1353 2.59599 19.8014 0.155224 26.3391 0.155224C32.9205 0.155224 38.6084 2.59599 43.4028 7.47754C48.2407 12.3155 50.6597 18.1995 50.6597 25.1295C50.6597 31.9724 48.2843 37.8128 43.5335 42.6508C38.8263 47.4452 33.182 49.8859 26.6007 49.9731C28.9543 51.6729 31.2425 52.9369 33.4653 53.765ZM26.3391 48.6655C32.0924 48.6655 36.5599 46.5081 39.7416 42.1931C42.9233 37.8346 44.5142 32.1468 44.5142 25.1295C44.5142 18.1559 42.9015 12.468 39.6762 8.06594C36.4945 3.66383 32.0488 1.46278 26.3391 1.46278C20.6731 1.46278 16.2492 3.66383 13.0675 8.06594C9.88574 12.468 8.29488 18.1559 8.29488 25.1295C8.29488 32.0596 9.88574 37.7257 13.0675 42.1278C16.2492 46.4863 20.6731 48.6655 26.3391 48.6655ZM77.4835 43.0431C76.0016 45.1787 74.4325 46.8785 72.7763 48.1425C71.1636 49.3629 69.1587 49.9731 66.7615 49.9731C63.9721 49.9731 61.8364 49.1014 60.3545 47.358C58.9162 45.571 58.197 43.0866 58.197 39.9049V23.4951C58.197 21.0979 57.2817 19.2673 55.4512 18.0034V17.8726H62.9696V38.8589C62.9696 43.7404 65.0617 46.1812 69.2459 46.1812C72.5148 46.1812 75.1517 44.7865 77.1566 41.997V23.4951C77.1566 21.0107 76.1977 19.1802 74.28 18.0034V17.8726H81.9292V39.9703C81.9292 41.7573 82.0381 43.152 82.2561 44.1545C82.474 45.1133 82.7573 45.8107 83.106 46.2466C83.4982 46.6388 84.0866 47.0747 84.8712 47.5541V47.6849L77.4835 49.777V43.0431ZM116.389 41.0817C115.561 43.7404 114.036 45.8979 111.813 47.5541C109.634 49.1668 106.975 49.9731 103.837 49.9731C99.5219 49.9731 96.0351 48.4912 93.3764 45.5274C90.7613 42.5636 89.4537 38.7063 89.4537 33.9555C89.4537 28.9432 90.9356 24.8462 93.8994 21.6645C96.8632 18.4828 100.328 16.8919 104.294 16.8919C107.956 16.8919 110.919 18.1995 113.186 20.8146C115.496 23.4297 116.52 26.3281 116.259 29.5099H94.4878C94.4442 29.7278 94.4225 30.0983 94.4225 30.6213V31.7327C94.4225 36.1784 95.4249 39.6434 97.4298 42.1278C99.4783 44.5685 102.333 45.7889 105.994 45.7889C110.484 45.7889 113.84 44.1545 116.062 40.8856L116.389 41.0817ZM104.033 18.0687C101.461 18.0687 99.3476 19.0058 97.6913 20.88C96.0787 22.7541 95.0544 25.2821 94.6186 28.4638L110.963 28.1369V27.6139C110.963 21.2505 108.653 18.0687 104.033 18.0687ZM141.198 24.5411L140.741 24.6719C138.3 20.2698 135.249 18.0687 131.588 18.0687C129.67 18.0687 128.144 18.57 127.011 19.5724C125.878 20.5749 125.311 21.8606 125.311 23.4297C125.311 24.345 125.508 25.1731 125.9 25.9141C126.292 26.6114 126.946 27.2652 127.861 27.8754C128.776 28.442 129.626 28.8997 130.411 29.2483C131.195 29.597 132.285 30.0329 133.68 30.5559C135.205 31.2097 136.36 31.7545 137.145 32.1903C137.929 32.5826 138.845 33.1928 139.891 34.0209C140.98 34.8055 141.765 35.7643 142.244 36.8975C142.724 37.9872 142.963 39.2947 142.963 40.8202C142.963 43.784 141.917 46.0504 139.825 47.6195C137.733 49.1886 134.835 49.9731 131.13 49.9731C127.905 49.9731 124.876 49.3629 122.043 48.1425L121.389 40.6895L121.846 40.5587C123.198 43.4353 124.679 45.5274 126.292 46.835C127.905 48.1425 129.822 48.7963 132.045 48.7963C134.312 48.7963 136.033 48.2079 137.21 47.0311C138.431 45.8107 139.041 44.3288 139.041 42.5854C139.041 40.7984 138.409 39.4037 137.145 38.4012C135.924 37.3988 134.007 36.3745 131.392 35.3285C129.953 34.7619 128.82 34.2824 127.992 33.8902C127.164 33.4543 126.205 32.8441 125.115 32.0596C124.026 31.2751 123.219 30.338 122.696 29.2483C122.173 28.1151 121.912 26.8294 121.912 25.391C121.912 22.4708 122.98 20.3352 125.115 18.984C127.251 17.5893 129.866 16.8919 132.961 16.8919C135.968 16.8919 138.496 17.306 140.544 18.1341L141.198 24.5411ZM157.33 49.9731C155.325 49.9731 153.669 49.4065 152.361 48.2733C151.053 47.0965 150.4 45.1569 150.4 42.4547V19.0494H146.869V18.7879L154.845 11.9232H155.172V17.8726H164.325V19.0494H155.172V42.4547C155.172 45.7235 156.741 47.358 159.879 47.358C161.884 47.358 163.541 46.9439 164.848 46.1158L164.979 46.3773C163.192 48.7745 160.642 49.9731 157.33 49.9731ZM177.222 5.90847C177.222 6.82376 176.895 7.60829 176.241 8.26207C175.631 8.87226 174.89 9.17736 174.018 9.17736C173.147 9.17736 172.384 8.87226 171.73 8.26207C171.076 7.60829 170.749 6.82376 170.749 5.90847C170.749 5.03677 171.076 4.27403 171.73 3.62025C172.384 2.96647 173.147 2.63958 174.018 2.63958C174.89 2.63958 175.631 2.96647 176.241 3.62025C176.895 4.27403 177.222 5.03677 177.222 5.90847ZM170.423 48.8617C171.381 46.2466 171.861 42.9341 171.861 38.9243V26.764C171.861 24.1053 170.902 21.9478 168.984 20.2916V20.0301L176.633 16.565V38.8589C176.633 43.4353 177.113 46.7696 178.072 48.8617V48.9924H170.423V48.8617ZM211.473 45.1351C208.247 48.3604 204.39 49.9731 199.901 49.9731C195.412 49.9731 191.554 48.3604 188.329 45.1351C185.104 41.8663 183.491 37.9872 183.491 33.4979C183.491 29.0086 185.125 25.1295 188.394 21.8606C191.663 18.5482 195.499 16.8919 199.901 16.8919C204.39 16.8919 208.247 18.5264 211.473 21.7953C214.698 25.0642 216.311 28.965 216.311 33.4979C216.311 37.9872 214.698 41.8663 211.473 45.1351ZM191.794 44.3506C193.668 47.2708 196.37 48.7309 199.901 48.7309C203.431 48.7309 206.134 47.2708 208.008 44.3506C209.882 41.4304 210.819 37.8128 210.819 33.4979C210.819 29.1394 209.86 25.5 207.942 22.5798C206.068 19.616 203.388 18.1341 199.901 18.1341C196.414 18.1341 193.712 19.616 191.794 22.5798C189.92 25.5 188.983 29.1394 188.983 33.4979C188.983 37.8128 189.92 41.4304 191.794 44.3506ZM230.009 48.9924H222.36V48.8617C223.319 46.6824 223.798 43.3699 223.798 38.9243V26.6986C223.798 23.9963 222.839 21.8171 220.921 20.1608V20.0301L228.309 16.565V22.6452L228.571 22.7106C231.839 18.8315 235.566 16.8919 239.75 16.8919C242.714 16.8919 244.98 17.7418 246.549 19.4417C248.162 21.0979 248.968 23.4297 248.968 26.4371V38.8589C248.968 41.5176 249.034 43.5225 249.165 44.8736C249.339 46.2248 249.753 47.5541 250.407 48.8617V48.9924H242.757V48.8617C243.716 46.6388 244.196 43.3264 244.196 38.9243V27.4831C244.196 25.3039 243.651 23.5387 242.561 22.1875C241.515 20.7928 239.816 20.0954 237.462 20.0954C234.062 20.0954 231.098 21.3812 228.571 23.9527V38.8589C228.571 43.4353 229.05 46.7696 230.009 48.8617V48.9924ZM275.733 24.5411L275.276 24.6719C272.835 20.2698 269.784 18.0687 266.123 18.0687C264.205 18.0687 262.68 18.57 261.546 19.5724C260.413 20.5749 259.847 21.8606 259.847 23.4297C259.847 24.345 260.043 25.1731 260.435 25.9141C260.827 26.6114 261.481 27.2652 262.396 27.8754C263.312 28.442 264.162 28.8997 264.946 29.2483C265.731 29.597 266.82 30.0329 268.215 30.5559C269.74 31.2097 270.895 31.7545 271.68 32.1903C272.465 32.5826 273.38 33.1928 274.426 34.0209C275.516 34.8055 276.3 35.7643 276.779 36.8975C277.259 37.9872 277.499 39.2947 277.499 40.8202C277.499 43.784 276.453 46.0504 274.361 47.6195C272.268 49.1886 269.37 49.9731 265.665 49.9731C262.44 49.9731 259.411 49.3629 256.578 48.1425L255.924 40.6895L256.382 40.5587C257.733 43.4353 259.215 45.5274 260.827 46.835C262.44 48.1425 264.358 48.7963 266.581 48.7963C268.847 48.7963 270.569 48.2079 271.745 47.0311C272.966 45.8107 273.576 44.3288 273.576 42.5854C273.576 40.7984 272.944 39.4037 271.68 38.4012C270.46 37.3988 268.542 36.3745 265.927 35.3285C264.488 34.7619 263.355 34.2824 262.527 33.8902C261.699 33.4543 260.74 32.8441 259.651 32.0596C258.561 31.2751 257.755 30.338 257.232 29.2483C256.709 28.1151 256.447 26.8294 256.447 25.391C256.447 22.4708 257.515 20.3352 259.651 18.984C261.786 17.5893 264.401 16.8919 267.496 16.8919C270.503 16.8919 273.031 17.306 275.08 18.1341L275.733 24.5411ZM287.377 35.3939C287.682 33.3889 288.292 31.5584 289.207 29.9021C290.123 28.2459 291.125 26.8294 292.215 25.6526C293.348 24.4322 294.438 23.19 295.484 21.926C296.573 20.6185 297.467 19.0276 298.164 17.1534C298.905 15.2793 299.276 13.1436 299.276 10.7464C299.276 4.47016 296.813 1.33202 291.888 1.33202C289.621 1.33202 287.747 2.07297 286.265 3.55487C284.783 5.03677 283.323 7.34678 281.885 10.4849L281.427 10.3542L282.735 2.05118C286.047 0.787209 289.207 0.155224 292.215 0.155224C296.268 0.155224 299.363 1.07051 301.498 2.90109C303.678 4.68808 304.767 7.34678 304.767 10.8772C304.767 13.1436 304.288 15.1921 303.329 17.0227C302.414 18.8097 301.237 20.357 299.799 21.6645C298.404 22.9721 296.944 24.236 295.418 25.4564C293.936 26.6768 292.52 28.1369 291.169 29.8367C289.861 31.5366 288.946 33.3889 288.423 35.3939H287.377ZM290.907 48.2079C290.166 48.9053 289.295 49.2539 288.292 49.2539C287.29 49.2539 286.418 48.9053 285.677 48.2079C284.98 47.4669 284.631 46.5952 284.631 45.5928C284.631 44.5467 284.98 43.675 285.677 42.9777C286.418 42.2367 287.29 41.8663 288.292 41.8663C289.295 41.8663 290.166 42.2367 290.907 42.9777C291.648 43.675 292.019 44.5467 292.019 45.5928C292.019 46.5952 291.648 47.4669 290.907 48.2079ZM362.945 45.0698C361.55 46.0722 359.153 47.1401 355.753 48.2733C352.397 49.4065 348.867 49.9731 345.162 49.9731C337.796 49.9731 331.912 47.6195 327.51 42.9123C323.108 38.1615 320.907 32.1903 320.907 24.9988C320.907 17.938 323.282 12.0322 328.033 7.2814C332.827 2.53062 339.017 0.155224 346.6 0.155224C352.223 0.155224 357.584 1.22306 362.683 3.35874L363.991 13.2962L363.468 13.4269C360.809 9.15557 358.15 6.1046 355.492 4.27403C352.877 2.39986 349.739 1.46278 346.077 1.46278C339.758 1.46278 335.007 3.62025 331.825 7.93518C328.643 12.2501 327.052 17.938 327.052 24.9988C327.052 32.1032 328.578 37.8346 331.629 42.1931C334.723 46.5081 339.278 48.6655 345.293 48.6655C349.826 48.6655 353.487 47.4452 356.276 45.0044C359.066 42.5636 361.55 38.8807 363.729 33.9555L364.252 34.1517L362.945 45.0698ZM398.377 45.1351C395.151 48.3604 391.294 49.9731 386.805 49.9731C382.315 49.9731 378.458 48.3604 375.233 45.1351C372.008 41.8663 370.395 37.9872 370.395 33.4979C370.395 29.0086 372.029 25.1295 375.298 21.8606C378.567 18.5482 382.403 16.8919 386.805 16.8919C391.294 16.8919 395.151 18.5264 398.377 21.7953C401.602 25.0642 403.215 28.965 403.215 33.4979C403.215 37.9872 401.602 41.8663 398.377 45.1351ZM378.698 44.3506C380.572 47.2708 383.274 48.7309 386.805 48.7309C390.335 48.7309 393.037 47.2708 394.912 44.3506C396.786 41.4304 397.723 37.8128 397.723 33.4979C397.723 29.1394 396.764 25.5 394.846 22.5798C392.972 19.616 390.292 18.1341 386.805 18.1341C383.318 18.1341 380.616 19.616 378.698 22.5798C376.824 25.5 375.887 29.1394 375.887 33.4979C375.887 37.8128 376.824 41.4304 378.698 44.3506ZM416.978 48.9924H409.263V48.8617C410.266 46.5952 410.767 43.3264 410.767 39.055V26.764C410.767 24.0181 409.787 21.7953 407.825 20.0954V19.9647L415.278 16.4997V22.6452L415.54 22.7106C418.111 18.8315 421.533 16.8919 425.804 16.8919C430.032 16.8919 432.516 18.8315 433.257 22.7106L433.453 22.7759C436.199 18.8533 439.642 16.8919 443.783 16.8919C448.882 16.8919 451.432 19.8339 451.432 25.7179V38.9896C451.432 41.6047 451.519 43.5879 451.694 44.939C451.868 46.2901 452.26 47.5977 452.87 48.8617V48.9924H445.221V48.8617C446.18 46.6824 446.66 43.4135 446.66 39.055V26.764C446.66 24.6719 446.267 23.0375 445.483 21.8606C444.698 20.6838 443.304 20.0954 441.299 20.0954C438.335 20.0954 435.72 21.4466 433.453 24.1489V38.9896C433.453 41.5176 433.54 43.4789 433.715 44.8736C433.889 46.2248 434.303 47.5541 434.957 48.8617V48.9924H427.242V48.8617C428.201 46.6824 428.681 43.4135 428.681 39.055V26.764C428.681 24.6719 428.288 23.0375 427.504 21.8606C426.719 20.6838 425.325 20.0954 423.32 20.0954C420.225 20.0954 417.632 21.4248 415.54 24.0835V38.9896C415.54 43.5225 416.019 46.8132 416.978 48.8617V48.9924ZM467.814 48.9924H460.1V48.8617C461.102 46.5952 461.604 43.3264 461.604 39.055V26.764C461.604 24.0181 460.623 21.7953 458.662 20.0954V19.9647L466.115 16.4997V22.6452L466.376 22.7106C468.948 18.8315 472.369 16.8919 476.64 16.8919C480.868 16.8919 483.353 18.8315 484.093 22.7106L484.29 22.7759C487.035 18.8533 490.479 16.8919 494.619 16.8919C499.719 16.8919 502.268 19.8339 502.268 25.7179V38.9896C502.268 41.6047 502.356 43.5879 502.53 44.939C502.704 46.2901 503.097 47.5977 503.707 48.8617V48.9924H496.058V48.8617C497.016 46.6824 497.496 43.4135 497.496 39.055V26.764C497.496 24.6719 497.104 23.0375 496.319 21.8606C495.535 20.6838 494.14 20.0954 492.135 20.0954C489.171 20.0954 486.556 21.4466 484.29 24.1489V38.9896C484.29 41.5176 484.377 43.4789 484.551 44.8736C484.725 46.2248 485.14 47.5541 485.793 48.8617V48.9924H478.079V48.8617C479.038 46.6824 479.517 43.4135 479.517 39.055V26.764C479.517 24.6719 479.125 23.0375 478.34 21.8606C477.556 20.6838 476.161 20.0954 474.156 20.0954C471.061 20.0954 468.468 21.4248 466.376 24.0835V38.9896C466.376 43.5225 466.856 46.8132 467.814 48.8617V48.9924ZM536.564 41.0817C535.736 43.7404 534.211 45.8979 531.988 47.5541C529.809 49.1668 527.15 49.9731 524.012 49.9731C519.697 49.9731 516.21 48.4912 513.551 45.5274C510.936 42.5636 509.629 38.7063 509.629 33.9555C509.629 28.9432 511.11 24.8462 514.074 21.6645C517.038 18.4828 520.503 16.8919 524.469 16.8919C528.131 16.8919 531.094 18.1995 533.361 20.8146C535.671 23.4297 536.695 26.3281 536.433 29.5099H514.663C514.619 29.7278 514.597 30.0983 514.597 30.6213V31.7327C514.597 36.1784 515.6 39.6434 517.605 42.1278C519.653 44.5685 522.508 45.7889 526.169 45.7889C530.658 45.7889 534.015 44.1545 536.237 40.8856L536.564 41.0817ZM524.208 18.0687C521.636 18.0687 519.522 19.0058 517.866 20.88C516.254 22.7541 515.229 25.2821 514.793 28.4638L531.138 28.1369V27.6139C531.138 21.2505 528.828 18.0687 524.208 18.0687ZM550.332 48.9924H542.683V48.8617C543.642 46.6824 544.121 43.3699 544.121 38.9243V26.6986C544.121 23.9963 543.162 21.8171 541.244 20.1608V20.0301L548.632 16.565V22.6452L548.894 22.7106C552.162 18.8315 555.889 16.8919 560.073 16.8919C563.037 16.8919 565.303 17.7418 566.872 19.4417C568.485 21.0979 569.291 23.4297 569.291 26.4371V38.8589C569.291 41.5176 569.357 43.5225 569.488 44.8736C569.662 46.2248 570.076 47.5541 570.73 48.8617V48.9924H563.081V48.8617C564.039 46.6388 564.519 43.3264 564.519 38.9243V27.4831C564.519 25.3039 563.974 23.5387 562.884 22.1875C561.838 20.7928 560.139 20.0954 557.785 20.0954C554.385 20.0954 551.422 21.3812 548.894 23.9527V38.8589C548.894 43.4353 549.373 46.7696 550.332 48.8617V48.9924ZM586.315 49.9731C584.31 49.9731 582.654 49.4065 581.347 48.2733C580.039 47.0965 579.385 45.1569 579.385 42.4547V19.0494H575.855V18.7879L583.831 11.9232H584.158V17.8726H593.311V19.0494H584.158V42.4547C584.158 45.7235 585.727 47.358 588.865 47.358C590.87 47.358 592.526 46.9439 593.834 46.1158L593.964 46.3773C592.177 48.7745 589.628 49.9731 586.315 49.9731ZM617.779 24.5411L617.322 24.6719C614.881 20.2698 611.83 18.0687 608.169 18.0687C606.251 18.0687 604.726 18.57 603.592 19.5724C602.459 20.5749 601.892 21.8606 601.892 23.4297C601.892 24.345 602.089 25.1731 602.481 25.9141C602.873 26.6114 603.527 27.2652 604.442 27.8754C605.358 28.442 606.207 28.8997 606.992 29.2483C607.776 29.597 608.866 30.0329 610.261 30.5559C611.786 31.2097 612.941 31.7545 613.726 32.1903C614.51 32.5826 615.426 33.1928 616.472 34.0209C617.561 34.8055 618.346 35.7643 618.825 36.8975C619.305 37.9872 619.544 39.2947 619.544 40.8202C619.544 43.784 618.498 46.0504 616.406 47.6195C614.314 49.1886 611.416 49.9731 607.711 49.9731C604.486 49.9731 601.457 49.3629 598.624 48.1425L597.97 40.6895L598.427 40.5587C599.779 43.4353 601.261 45.5274 602.873 46.835C604.486 48.1425 606.404 48.7963 608.626 48.7963C610.893 48.7963 612.614 48.2079 613.791 47.0311C615.012 45.8107 615.622 44.3288 615.622 42.5854C615.622 40.7984 614.99 39.4037 613.726 38.4012C612.505 37.3988 610.588 36.3745 607.973 35.3285C606.534 34.7619 605.401 34.2824 604.573 33.8902C603.745 33.4543 602.786 32.8441 601.696 32.0596C600.607 31.2751 599.8 30.338 599.277 29.2483C598.754 28.1151 598.493 26.8294 598.493 25.391C598.493 22.4708 599.561 20.3352 601.696 18.984C603.832 17.5893 606.447 16.8919 609.542 16.8919C612.549 16.8919 615.077 17.306 617.126 18.1341L617.779 24.5411ZM629.423 35.3939C629.728 33.3889 630.338 31.5584 631.253 29.9021C632.169 28.2459 633.171 26.8294 634.261 25.6526C635.394 24.4322 636.483 23.19 637.529 21.926C638.619 20.6185 639.513 19.0276 640.21 17.1534C640.951 15.2793 641.321 13.1436 641.321 10.7464C641.321 4.47016 638.859 1.33202 633.934 1.33202C631.667 1.33202 629.793 2.07297 628.311 3.55487C626.829 5.03677 625.369 7.34678 623.931 10.4849L623.473 10.3542L624.781 2.05118C628.093 0.787209 631.253 0.155224 634.261 0.155224C638.314 0.155224 641.409 1.07051 643.544 2.90109C645.724 4.68808 646.813 7.34678 646.813 10.8772C646.813 13.1436 646.334 15.1921 645.375 17.0227C644.46 18.8097 643.283 20.357 641.844 21.6645C640.45 22.9721 638.99 24.236 637.464 25.4564C635.982 26.6768 634.566 28.1369 633.215 29.8367C631.907 31.5366 630.992 33.3889 630.469 35.3939H629.423ZM632.953 48.2079C632.212 48.9053 631.34 49.2539 630.338 49.2539C629.335 49.2539 628.464 48.9053 627.723 48.2079C627.025 47.4669 626.677 46.5952 626.677 45.5928C626.677 44.5467 627.025 43.675 627.723 42.9777C628.464 42.2367 629.335 41.8663 630.338 41.8663C631.34 41.8663 632.212 42.2367 632.953 42.9777C633.694 43.675 634.064 44.5467 634.064 45.5928C634.064 46.5952 633.694 47.4669 632.953 48.2079ZM687.143 49.9731C680.605 49.9731 674.939 47.5541 670.144 42.7162C665.35 37.8782 662.953 32.016 662.953 25.1295C662.953 18.1995 665.35 12.3155 670.144 7.47754C674.939 2.59599 680.605 0.155224 687.143 0.155224C693.724 0.155224 699.412 2.59599 704.206 7.47754C709.044 12.3155 711.463 18.1995 711.463 25.1295C711.463 32.016 709.044 37.8782 704.206 42.7162C699.412 47.5541 693.724 49.9731 687.143 49.9731ZM687.143 48.6655C692.896 48.6655 697.363 46.5081 700.545 42.1931C703.727 37.8346 705.318 32.1468 705.318 25.1295C705.318 18.1559 703.705 12.468 700.48 8.06594C697.298 3.66383 692.852 1.46278 687.143 1.46278C681.476 1.46278 677.053 3.66383 673.871 8.06594C670.689 12.468 669.098 18.1559 669.098 25.1295C669.098 32.0596 670.689 37.7257 673.871 42.1278C677.053 46.4863 681.476 48.6655 687.143 48.6655ZM718.158 48.8617C719.117 46.6824 719.597 43.3699 719.597 38.9243V26.6986C719.597 23.9963 718.638 21.8171 716.72 20.1608V20.0301L724.108 16.565V24.4758L724.434 24.5411C724.652 24.3232 725.11 23.8002 725.807 22.9721C726.548 22.1004 727.093 21.4902 727.442 21.1415C727.791 20.7492 728.314 20.2262 729.011 19.5724C729.708 18.9186 730.318 18.4392 730.841 18.1341C731.365 17.829 731.996 17.5457 732.737 17.2842C733.478 17.0227 734.198 16.8919 734.895 16.8919L734.83 23.3643H734.633C734.11 23.0157 733.282 22.6888 732.149 22.3837C731.059 22.0786 730.144 21.926 729.403 21.926C728.837 21.926 728.074 22.3183 727.115 23.1028C726.156 23.8874 725.241 24.8462 724.369 25.9794V38.8589C724.369 43.4353 724.849 46.7696 725.807 48.8617V48.9924H718.158V48.8617ZM10.1255 83.9085C10.1255 84.8238 9.79857 85.6083 9.14479 86.2621C8.5346 86.8723 7.79365 87.1774 6.92195 87.1774C6.05024 87.1774 5.2875 86.8723 4.63372 86.2621C3.97995 85.6083 3.65306 84.8238 3.65306 83.9085C3.65306 83.0368 3.97995 82.274 4.63372 81.6202C5.2875 80.9665 6.05024 80.6396 6.92195 80.6396C7.79365 80.6396 8.5346 80.9665 9.14479 81.6202C9.79857 82.274 10.1255 83.0368 10.1255 83.9085ZM0.514923 140.722C1.99682 139.894 3.06466 138.782 3.71843 137.388C4.4158 135.993 4.76448 134.031 4.76448 131.503V104.764C4.76448 102.105 3.8056 99.9478 1.88786 98.2916V98.0301L9.53706 94.565L9.4063 128.888C9.4063 136.211 6.48609 140.264 0.645678 141.049L0.514923 140.722ZM37.5162 121.043C36.0343 123.179 34.4652 124.879 32.809 126.143C31.1963 127.363 29.1914 127.973 26.7942 127.973C24.0048 127.973 21.8691 127.101 20.3872 125.358C18.9489 123.571 18.2297 121.087 18.2297 117.905V101.495C18.2297 99.0979 17.3145 97.2673 15.4839 96.0034V95.8726H23.0023V116.859C23.0023 121.74 25.0944 124.181 29.2786 124.181C32.5475 124.181 35.1844 122.786 37.1893 119.997V101.495C37.1893 99.0107 36.2304 97.1802 34.3127 96.0034V95.8726H41.9619V117.97C41.9619 119.757 42.0708 121.152 42.2888 122.154C42.5067 123.113 42.79 123.811 43.1387 124.247C43.531 124.639 44.1194 125.075 44.9039 125.554V125.685L37.5162 127.777V121.043ZM68.8459 102.541L68.3883 102.672C65.9475 98.2698 62.8966 96.0687 59.2354 96.0687C57.3177 96.0687 55.7922 96.57 54.659 97.5724C53.5258 98.5749 52.9591 99.8606 52.9591 101.43C52.9591 102.345 53.1553 103.173 53.5475 103.914C53.9398 104.611 54.5936 105.265 55.5089 105.875C56.4242 106.442 57.2741 106.9 58.0586 107.248C58.8431 107.597 59.9328 108.033 61.3275 108.556C62.853 109.21 64.008 109.754 64.7925 110.19C65.5771 110.583 66.4923 111.193 67.5384 112.021C68.628 112.805 69.4126 113.764 69.892 114.898C70.3714 115.987 70.6111 117.295 70.6111 118.82C70.6111 121.784 69.5651 124.05 67.473 125.619C65.3809 127.189 62.4825 127.973 58.7778 127.973C55.5525 127.973 52.5233 127.363 49.6903 126.143L49.0365 118.689L49.4941 118.559C50.8453 121.435 52.3272 123.527 53.9398 124.835C55.5525 126.143 57.4702 126.796 59.6931 126.796C61.9595 126.796 63.6811 126.208 64.8579 125.031C66.0783 123.811 66.6885 122.329 66.6885 120.585C66.6885 118.798 66.0565 117.404 64.7925 116.401C63.5721 115.399 61.6544 114.375 59.0393 113.328C57.601 112.762 56.4678 112.282 55.6396 111.89C54.8115 111.454 53.8526 110.844 52.763 110.06C51.6734 109.275 50.8671 108.338 50.344 107.248C49.821 106.115 49.5595 104.829 49.5595 103.391C49.5595 100.471 50.6273 98.3352 52.763 96.984C54.8987 95.5893 57.5138 94.8919 60.6083 94.8919C63.6157 94.8919 66.1437 95.306 68.1922 96.1341L68.8459 102.541ZM84.9774 127.973C82.9725 127.973 81.3162 127.406 80.0087 126.273C78.7011 125.096 78.0474 123.157 78.0474 120.455V97.0494H74.517V96.7879L82.493 89.9232H82.8199V95.8726H91.9728V97.0494H82.8199V120.455C82.8199 123.724 84.389 125.358 87.5271 125.358C89.5321 125.358 91.1883 124.944 92.4959 124.116L92.6266 124.377C90.8396 126.775 88.2899 127.973 84.9774 127.973ZM117.761 127.973C115.756 127.973 114.1 127.406 112.792 126.273C111.485 125.096 110.831 123.157 110.831 120.455V97.0494H107.3V96.7879L115.276 89.9232H115.603V95.8726H124.756V97.0494H115.603V120.455C115.603 123.724 117.172 125.358 120.311 125.358C122.315 125.358 123.972 124.944 125.279 124.116L125.41 124.377C123.623 126.775 121.073 127.973 117.761 127.973ZM156.374 123.135C153.149 126.36 149.291 127.973 144.802 127.973C140.313 127.973 136.456 126.36 133.23 123.135C130.005 119.866 128.392 115.987 128.392 111.498C128.392 107.009 130.027 103.13 133.296 99.8606C136.565 96.5482 140.4 94.8919 144.802 94.8919C149.291 94.8919 153.149 96.5264 156.374 99.7953C159.599 103.064 161.212 106.965 161.212 111.498C161.212 115.987 159.599 119.866 156.374 123.135ZM136.695 122.351C138.569 125.271 141.272 126.731 144.802 126.731C148.333 126.731 151.035 125.271 152.909 122.351C154.783 119.43 155.72 115.813 155.72 111.498C155.72 107.139 154.761 103.5 152.844 100.58C150.969 97.616 148.289 96.1341 144.802 96.1341C141.315 96.1341 138.613 97.616 136.695 100.58C134.821 103.5 133.884 107.139 133.884 111.498C133.884 115.813 134.821 119.43 136.695 122.351ZM196.693 102.541L196.235 102.672C193.794 98.2698 190.743 96.0687 187.082 96.0687C185.164 96.0687 183.639 96.57 182.506 97.5724C181.373 98.5749 180.806 99.8606 180.806 101.43C180.806 102.345 181.002 103.173 181.394 103.914C181.787 104.611 182.44 105.265 183.356 105.875C184.271 106.442 185.121 106.9 185.905 107.248C186.69 107.597 187.78 108.033 189.174 108.556C190.7 109.21 191.855 109.754 192.639 110.19C193.424 110.583 194.339 111.193 195.385 112.021C196.475 112.805 197.259 113.764 197.739 114.898C198.218 115.987 198.458 117.295 198.458 118.82C198.458 121.784 197.412 124.05 195.32 125.619C193.228 127.189 190.329 127.973 186.625 127.973C183.399 127.973 180.37 127.363 177.537 126.143L176.883 118.689L177.341 118.559C178.692 121.435 180.174 123.527 181.787 124.835C183.399 126.143 185.317 126.796 187.54 126.796C189.806 126.796 191.528 126.208 192.705 125.031C193.925 123.811 194.535 122.329 194.535 120.585C194.535 118.798 193.903 117.404 192.639 116.401C191.419 115.399 189.501 114.375 186.886 113.328C185.448 112.762 184.315 112.282 183.486 111.89C182.658 111.454 181.699 110.844 180.61 110.06C179.52 109.275 178.714 108.338 178.191 107.248C177.668 106.115 177.406 104.829 177.406 103.391C177.406 100.471 178.474 98.3352 180.61 96.984C182.745 95.5893 185.361 94.8919 188.455 94.8919C191.462 94.8919 193.99 95.306 196.039 96.1341L196.693 102.541ZM212.955 125.096C215.919 125.096 218.316 124.181 220.146 122.351V111.498C216.572 112.108 213.587 113.132 211.19 114.571C208.793 116.009 207.594 117.927 207.594 120.324C207.594 121.806 208.03 122.983 208.902 123.854C209.817 124.682 211.168 125.096 212.955 125.096ZM224.984 127.777C223.503 127.777 222.348 127.385 221.519 126.6C220.735 125.816 220.277 124.77 220.146 123.462C217.444 126.469 214.154 127.973 210.274 127.973C208.095 127.973 206.33 127.45 204.979 126.404C203.628 125.314 202.952 123.789 202.952 121.828C202.952 120.128 203.497 118.58 204.587 117.186C205.676 115.791 207.115 114.658 208.902 113.786C210.688 112.914 212.519 112.217 214.393 111.694C216.267 111.127 218.185 110.735 220.146 110.517V103.979C220.146 99.8389 217.902 97.7686 213.413 97.7686C210.013 97.7686 207.027 98.7274 204.456 100.645L204.129 100.253C207.093 96.6789 211.124 94.8919 216.224 94.8919C222.021 94.8919 224.919 97.5288 224.919 102.803V122.024C224.919 123.898 225.769 124.835 227.469 124.835C228.428 124.835 229.474 124.377 230.607 123.462L230.803 123.593C229.713 126.382 227.774 127.777 224.984 127.777ZM233.223 136.864C234.269 136.864 235.336 136.712 236.426 136.407C237.559 136.145 238.845 135.426 240.283 134.249C241.765 133.073 242.877 131.525 243.618 129.608L244.533 127.189L235.38 103.13C234.508 100.907 233.833 99.3376 233.353 98.4223C232.874 97.4635 232.242 96.6571 231.457 96.0034V95.8726H240.676V96.0034C239.281 97.5288 239.259 100.035 240.61 103.522L247.017 120.651L253.359 103.783C254.71 100.122 254.427 97.5288 252.509 96.0034V95.8726H259.374V96.0034C258.328 96.9622 257.5 97.9647 256.889 99.0107C256.279 100.013 255.625 101.473 254.928 103.391L244.141 131.307C242.746 134.925 241.199 137.496 239.499 139.022C237.799 140.547 235.75 141.441 233.353 141.702L233.223 136.864ZM274.403 126.992V126.862C275.362 124.682 275.842 121.37 275.842 116.924V85.8044C275.842 83.1021 274.883 80.9229 272.965 79.2666V79.1359L280.614 76.0631V100.711C283.927 96.8315 287.675 94.8919 291.859 94.8919C294.823 94.8919 297.09 95.7418 298.659 97.4417C300.228 99.0979 301.012 101.43 301.012 104.437V116.924C301.012 119.539 301.078 121.544 301.208 122.939C301.383 124.29 301.797 125.598 302.45 126.862V126.992H294.801V126.862C295.76 124.639 296.24 121.326 296.24 116.924V105.483C296.24 103.304 295.695 101.539 294.605 100.188C293.559 98.7928 291.881 98.0954 289.571 98.0954C286.128 98.0954 283.142 99.3812 280.614 101.953V116.924C280.614 121.457 281.116 124.77 282.118 126.862V126.992H274.403ZM315.953 83.9085C315.953 84.8238 315.626 85.6083 314.972 86.2621C314.362 86.8723 313.621 87.1774 312.75 87.1774C311.878 87.1774 311.115 86.8723 310.461 86.2621C309.808 85.6083 309.481 84.8238 309.481 83.9085C309.481 83.0368 309.808 82.274 310.461 81.6202C311.115 80.9665 311.878 80.6396 312.75 80.6396C313.621 80.6396 314.362 80.9665 314.972 81.6202C315.626 82.274 315.953 83.0368 315.953 83.9085ZM309.154 126.862C310.113 124.247 310.592 120.934 310.592 116.924V104.764C310.592 102.105 309.633 99.9478 307.715 98.2916V98.0301L315.365 94.565V116.859C315.365 121.435 315.844 124.77 316.803 126.862V126.992H309.154V126.862ZM328.187 113.394C328.492 111.389 329.102 109.558 330.017 107.902C330.933 106.246 331.935 104.829 333.025 103.653C334.158 102.432 335.248 101.19 336.294 99.926C337.383 98.6185 338.277 97.0276 338.974 95.1534C339.715 93.2793 340.086 91.1436 340.086 88.7464C340.086 82.4702 337.623 79.332 332.698 79.332C330.431 79.332 328.557 80.073 327.075 81.5549C325.594 83.0368 324.133 85.3468 322.695 88.4849L322.237 88.3542L323.545 80.0512C326.857 78.7872 330.017 78.1552 333.025 78.1552C337.078 78.1552 340.173 79.0705 342.308 80.9011C344.488 82.6881 345.577 85.3468 345.577 88.8772C345.577 91.1436 345.098 93.1921 344.139 95.0227C343.224 96.8097 342.047 98.357 340.609 99.6645C339.214 100.972 337.754 102.236 336.228 103.456C334.746 104.677 333.33 106.137 331.979 107.837C330.671 109.537 329.756 111.389 329.233 113.394H328.187ZM331.717 126.208C330.976 126.905 330.105 127.254 329.102 127.254C328.1 127.254 327.228 126.905 326.487 126.208C325.79 125.467 325.441 124.595 325.441 123.593C325.441 122.547 325.79 121.675 326.487 120.978C327.228 120.237 328.1 119.866 329.102 119.866C330.105 119.866 330.976 120.237 331.717 120.978C332.458 121.675 332.829 122.547 332.829 123.593C332.829 124.595 332.458 125.467 331.717 126.208ZM362.763 126.862C363.809 125.249 364.506 123.789 364.855 122.481C365.204 121.174 365.378 119.409 365.378 117.186V88.9426C365.378 86.7633 365.182 85.0199 364.79 83.7123C364.441 82.4048 363.765 80.9229 362.763 79.2666V79.1359C365.509 79.1359 368.473 79.0923 371.654 79.0051C374.88 78.918 377.952 78.8744 380.873 78.8744C388.5 78.8744 394.428 80.9665 398.655 85.1506C402.927 89.2912 405.062 95.197 405.062 102.868C405.062 110.67 402.905 116.641 398.59 120.782C394.319 124.922 388.195 126.992 380.219 126.992H362.763V126.862ZM370.739 80.1166V125.816L379.63 125.685C386.43 125.598 391.333 123.767 394.34 120.193C397.391 116.576 398.917 111.106 398.917 103.783C398.917 95.7201 397.37 89.7925 394.275 86.0006C391.224 82.1651 386.561 80.2255 380.284 80.1819L370.739 80.1166ZM411.879 126.862C412.837 124.682 413.317 121.37 413.317 116.924V104.699C413.317 101.996 412.358 99.8171 410.44 98.1608V98.0301L417.828 94.565V102.476L418.155 102.541C418.373 102.323 418.83 101.8 419.528 100.972C420.269 100.1 420.814 99.4902 421.162 99.1415C421.511 98.7492 422.034 98.2262 422.731 97.5724C423.429 96.9186 424.039 96.4392 424.562 96.1341C425.085 95.829 425.717 95.5457 426.458 95.2842C427.199 95.0227 427.918 94.8919 428.615 94.8919L428.55 101.364H428.354C427.831 101.016 427.003 100.689 425.869 100.384C424.78 100.079 423.865 99.926 423.124 99.926C422.557 99.926 421.794 100.318 420.835 101.103C419.876 101.887 418.961 102.846 418.089 103.979V116.859C418.089 121.435 418.569 124.77 419.528 126.862V126.992H411.879V126.862ZM460.016 123.135C456.79 126.36 452.933 127.973 448.444 127.973C443.954 127.973 440.097 126.36 436.872 123.135C433.646 119.866 432.034 115.987 432.034 111.498C432.034 107.009 433.668 103.13 436.937 99.8606C440.206 96.5482 444.042 94.8919 448.444 94.8919C452.933 94.8919 456.79 96.5264 460.016 99.7953C463.241 103.064 464.853 106.965 464.853 111.498C464.853 115.987 463.241 119.866 460.016 123.135ZM440.337 122.351C442.211 125.271 444.913 126.731 448.444 126.731C451.974 126.731 454.676 125.271 456.551 122.351C458.425 119.43 459.362 115.813 459.362 111.498C459.362 107.139 458.403 103.5 456.485 100.58C454.611 97.616 451.93 96.1341 448.444 96.1341C444.957 96.1341 442.255 97.616 440.337 100.58C438.463 103.5 437.526 107.139 437.526 111.498C437.526 115.813 438.463 119.43 440.337 122.351ZM485.612 126.796C488.751 126.796 491.279 125.445 493.196 122.743C495.158 119.997 496.138 116.336 496.138 111.759C496.138 107.314 495.158 103.914 493.196 101.56C491.235 99.2069 488.685 98.0301 485.547 98.0301C481.93 98.0301 479.118 99.294 477.113 101.822V120.716C478.813 124.77 481.646 126.796 485.612 126.796ZM470.902 141.702V141.572C471.861 139.392 472.341 136.102 472.341 131.7V104.699C472.341 101.996 471.382 99.8171 469.464 98.1608V98.0301L476.852 94.565V100.384L477.309 100.449C479.837 96.7443 483.455 94.8919 488.162 94.8919C492.041 94.8919 495.201 96.3738 497.642 99.3376C500.126 102.258 501.369 106.072 501.369 110.779C501.369 115.617 499.952 119.692 497.119 123.004C494.33 126.317 490.341 127.973 485.155 127.973C482.017 127.973 479.336 127.319 477.113 126.012V131.634C477.113 136.167 477.593 139.48 478.552 141.572V141.702H470.902ZM538.627 121.043C537.145 123.179 535.576 124.879 533.92 126.143C532.307 127.363 530.302 127.973 527.905 127.973C525.115 127.973 522.98 127.101 521.498 125.358C520.059 123.571 519.34 121.087 519.34 117.905V101.495C519.34 99.0979 518.425 97.2673 516.594 96.0034V95.8726H524.113V116.859C524.113 121.74 526.205 124.181 530.389 124.181C533.658 124.181 536.295 122.786 538.3 119.997V101.495C538.3 99.0107 537.341 97.1802 535.423 96.0034V95.8726H543.072V117.97C543.072 119.757 543.181 121.152 543.399 122.154C543.617 123.113 543.901 123.811 544.249 124.247C544.641 124.639 545.23 125.075 546.014 125.554V125.685L538.627 127.777V121.043ZM569.956 102.541L569.499 102.672C567.058 98.2698 564.007 96.0687 560.346 96.0687C558.428 96.0687 556.903 96.57 555.77 97.5724C554.636 98.5749 554.07 99.8606 554.07 101.43C554.07 102.345 554.266 103.173 554.658 103.914C555.05 104.611 555.704 105.265 556.619 105.875C557.535 106.442 558.385 106.9 559.169 107.248C559.954 107.597 561.043 108.033 562.438 108.556C563.964 109.21 565.119 109.754 565.903 110.19C566.688 110.583 567.603 111.193 568.649 112.021C569.739 112.805 570.523 113.764 571.003 114.898C571.482 115.987 571.722 117.295 571.722 118.82C571.722 121.784 570.676 124.05 568.584 125.619C566.491 127.189 563.593 127.973 559.888 127.973C556.663 127.973 553.634 127.363 550.801 126.143L550.147 118.689L550.605 118.559C551.956 121.435 553.438 123.527 555.05 124.835C556.663 126.143 558.581 126.796 560.804 126.796C563.07 126.796 564.792 126.208 565.968 125.031C567.189 123.811 567.799 122.329 567.799 120.585C567.799 118.798 567.167 117.404 565.903 116.401C564.683 115.399 562.765 114.375 560.15 113.328C558.712 112.762 557.578 112.282 556.75 111.89C555.922 111.454 554.963 110.844 553.874 110.06C552.784 109.275 551.978 108.338 551.455 107.248C550.932 106.115 550.67 104.829 550.67 103.391C550.67 100.471 551.738 98.3352 553.874 96.984C556.009 95.5893 558.624 94.8919 561.719 94.8919C564.726 94.8919 567.254 95.306 569.303 96.1341L569.956 102.541ZM597.279 125.096C600.243 125.096 602.64 124.181 604.471 122.351V111.498C600.897 112.108 597.911 113.132 595.514 114.571C593.117 116.009 591.918 117.927 591.918 120.324C591.918 121.806 592.354 122.983 593.226 123.854C594.141 124.682 595.492 125.096 597.279 125.096ZM609.309 127.777C607.827 127.777 606.672 127.385 605.844 126.6C605.059 125.816 604.602 124.77 604.471 123.462C601.769 126.469 598.478 127.973 594.599 127.973C592.419 127.973 590.654 127.45 589.303 126.404C587.952 125.314 587.276 123.789 587.276 121.828C587.276 120.128 587.821 118.58 588.911 117.186C590.001 115.791 591.439 114.658 593.226 113.786C595.013 112.914 596.843 112.217 598.718 111.694C600.592 111.127 602.509 110.735 604.471 110.517V103.979C604.471 99.8389 602.226 97.7686 597.737 97.7686C594.337 97.7686 591.352 98.7274 588.78 100.645L588.453 100.253C591.417 96.6789 595.449 94.8919 600.548 94.8919C606.345 94.8919 609.243 97.5288 609.243 102.803V122.024C609.243 123.898 610.093 124.835 611.793 124.835C612.752 124.835 613.798 124.377 614.931 123.462L615.127 123.593C614.038 126.382 612.098 127.777 609.309 127.777ZM630.684 126.862C631.643 124.988 632.123 122.242 632.123 118.624V85.3468C632.123 82.9496 631.142 80.9447 629.181 79.332V79.2013L636.895 76.0631V118.559C636.895 122.525 637.375 125.293 638.333 126.862V126.992H630.684V126.862ZM651.739 83.9085C651.739 84.8238 651.413 85.6083 650.759 86.2621C650.149 86.8723 649.408 87.1774 648.536 87.1774C647.664 87.1774 646.902 86.8723 646.248 86.2621C645.594 85.6083 645.267 84.8238 645.267 83.9085C645.267 83.0368 645.594 82.274 646.248 81.6202C646.902 80.9665 647.664 80.6396 648.536 80.6396C649.408 80.6396 650.149 80.9665 650.759 81.6202C651.413 82.274 651.739 83.0368 651.739 83.9085ZM644.94 126.862C645.899 124.247 646.378 120.934 646.378 116.924V104.764C646.378 102.105 645.42 99.9478 643.502 98.2916V98.0301L651.151 94.565V116.859C651.151 121.435 651.631 124.77 652.589 126.862V126.992H644.94V126.862ZM667.481 126.992H659.831V126.862C660.79 124.682 661.27 121.37 661.27 116.924V104.699C661.27 101.996 660.311 99.8171 658.393 98.1608V98.0301L665.781 94.565V100.645L666.042 100.711C669.311 96.8315 673.038 94.8919 677.222 94.8919C680.186 94.8919 682.452 95.7418 684.021 97.4417C685.634 99.0979 686.44 101.43 686.44 104.437V116.859C686.44 119.518 686.506 121.522 686.636 122.874C686.811 124.225 687.225 125.554 687.879 126.862V126.992H680.229V126.862C681.188 124.639 681.668 121.326 681.668 116.924V105.483C681.668 103.304 681.123 101.539 680.033 100.188C678.987 98.7928 677.287 98.0954 674.934 98.0954C671.534 98.0954 668.57 99.3812 666.042 101.953V116.859C666.042 121.435 666.522 124.77 667.481 126.862V126.992ZM720.781 119.082C719.953 121.74 718.428 123.898 716.205 125.554C714.026 127.167 711.367 127.973 708.229 127.973C703.914 127.973 700.427 126.491 697.768 123.527C695.153 120.564 693.846 116.706 693.846 111.956C693.846 106.943 695.328 102.846 698.292 99.6645C701.255 96.4828 704.72 94.8919 708.687 94.8919C712.348 94.8919 715.312 96.1995 717.578 98.8146C719.888 101.43 720.912 104.328 720.651 107.51H698.88C698.836 107.728 698.815 108.098 698.815 108.621V109.733C698.815 114.178 699.817 117.643 701.822 120.128C703.87 122.569 706.725 123.789 710.386 123.789C714.876 123.789 718.232 122.154 720.455 118.886L720.781 119.082ZM708.425 96.0687C705.854 96.0687 703.74 97.0058 702.083 98.88C700.471 100.754 699.447 103.282 699.011 106.464L715.355 106.137V105.614C715.355 99.2505 713.045 96.0687 708.425 96.0687ZM732.415 79.2666L730.257 113.394H729.277L727.184 79.2666V79.1359H732.415V79.2666ZM732.349 126.208C731.652 126.905 730.802 127.254 729.8 127.254C728.797 127.254 727.925 126.905 727.184 126.208C726.443 125.467 726.073 124.595 726.073 123.593C726.073 122.547 726.443 121.675 727.184 120.978C727.925 120.237 728.797 119.866 729.8 119.866C730.802 119.866 731.652 120.237 732.349 120.978C733.09 121.675 733.461 122.547 733.461 123.593C733.461 124.595 733.09 125.467 732.349 126.208Z" fill="#161010"/>
</svg>
